#tb 0: 1/5
#tb 1: 1/1000
0,          0,          0,        1,   518400, 0x46c47f38
0,          1,          1,        1,   518400, 0xa814ca60
0,          2,          2,        1,   518400, 0xa771e1af
1,        499,        499,     4960,     1015, 0x19e092d2, F=0x0
0,          3,          3,        1,   518400, 0x267abb76
0,          4,          4,        1,   518400, 0x184ca91f
0,          5,          5,        1,   518400, 0xc348bfee
0,          6,          6,        1,   518400, 0x80451196
0,          7,          7,        1,   518400, 0xfeb1781b
0,          8,          8,        1,   518400, 0xa7e1b76c
0,          9,          9,        1,   518400, 0x1fa10b77
0,         10,         10,        1,   518400, 0xbbeaa20e
0,         11,         11,        1,   518400, 0x5b5ba97f
0,         12,         12,        1,   518400, 0xe189fbdd
0,         13,         13,        1,   518400, 0xe143a932
0,         14,         14,        1,   518400, 0x13f18190
0,         15,         15,        1,   518400, 0x7eed3662
0,         16,         16,        1,   518400, 0x2c79137b
0,         17,         17,        1,   518400, 0xe08c0c5b
0,         18,         18,        1,   518400, 0x87b62f9d
0,         19,         19,        1,   518400, 0xe93d71ae
0,         20,         20,        1,   518400, 0x3038eca5
0,         21,         21,        1,   518400, 0xd77054bb
0,         22,         22,        1,   518400, 0x077ca600
0,         23,         23,        1,   518400, 0xf0ceba79
0,         24,         24,        1,   518400, 0x4acb661d
0,         25,         25,        1,   518400, 0xc28ae50a
0,         26,         26,        1,   518400, 0xa5381dd1
0,         27,         27,        1,   518400, 0x259f15e5
0,         28,         28,        1,   518400, 0xe1487038
0,         29,         29,        1,   518400, 0x7b5e5ec3
0,         30,         30,        1,   518400, 0x6b638cee
0,         31,         31,        1,   518400, 0x791da218
0,         32,         32,        1,   518400, 0xd1e4980c
0,         33,         33,        1,   518400, 0xce9aa6f8
0,         34,         34,        1,   518400, 0x9abe6cac
0,         35,         35,        1,   518400, 0xb472272a
0,         36,         36,        1,   518400, 0x730bfc44
0,         37,         37,        1,   518400, 0xf3e0b969
0,         38,         38,        1,   518400, 0x96a77064
0,         39,         39,        1,   518400, 0x16e94bf0
0,         40,         40,        1,   518400, 0x0ba93871
0,         41,         41,        1,   518400, 0x5e004779
0,         42,         42,        1,   518400, 0xc87864d5
0,         43,         43,        1,   518400, 0xa4b7c331
0,         44,         44,        1,   518400, 0xb8ec424a
0,         45,         45,        1,   518400, 0x4fa12b83
0,         46,         46,        1,   518400, 0x55acfb38
0,         47,         47,        1,   518400, 0xa4d66b64
0,         48,         48,        1,   518400, 0xd4008e86
0,         49,         49,        1,   518400, 0x88729869
1,      15355,      15355,     4733,     2094, 0x3c171425, F=0x0
1,      48797,      48797,     2560,     2480, 0x7c0edf21, F=0x0
1,      51433,      51433,     2366,     3059, 0xc95b8a05, F=0x0
1,      53919,      53919,     2696,     2095, 0x61bb15ed, F=0x0
1,      56663,      56663,     1262,     1013, 0xc9ae89b7, F=0x0
1,      58014,      58014,     1661,      969, 0xe01878f0, F=0x0
1,      67724,      67724,     1365,      844, 0xe7db4fc1, F=0x0
1,      69175,      69175,     1558,      802, 0xf48531ba, F=0x0
1,      70819,      70819,     1865,     1709, 0xb4d5a1bd, F=0x0
1,      72762,      72762,     1968,     2438, 0x99d7bc82, F=0x0
1,      74806,      74806,     1831,     2116, 0x96514097, F=0x0
1,      76716,      76716,     1262,     1822, 0xefccc72e, F=0x0
1,      78051,      78051,     1524,      987, 0x7b927a27, F=0x0
1,      79644,      79644,     2662,     2956, 0x190778f7, F=0x0
1,      82380,      82380,     2764,     3094, 0xc021b7d3, F=0x0
1,      85225,      85225,     2366,     2585, 0x74d0048f, F=0x0
1,      87652,      87652,     1831,      634, 0x8832fda1, F=0x0
1,      91531,      91531,     2332,     2080, 0x97a1146f, F=0x0
1,      95510,      95510,     3299,     2964, 0x8b8f6684, F=0x0
1,      98872,      98872,     2161,     1875, 0x9002ef71, F=0x0
1,     101124,     101124,     4096,     3872, 0x20c6ed9c, F=0x0
1,     105303,     105303,     2730,     3094, 0xf203a663, F=0x0
1,     108106,     108106,     2059,     2404, 0x41a7b429, F=0x0
1,     141556,     141556,     1661,     1088, 0xde20aa20, F=0x0
1,     163445,     163445,     1331,      339, 0x8bd186ef, F=0x0
1,     168049,     168049,     1900,     1312, 0x0bf20e8d, F=0x0
1,     172203,     172203,     1695,     1826, 0x9a1ac769, F=0x0
1,     173947,     173947,     1934,     1474, 0xa9b03cdc, F=0x0
1,     175957,     175957,     1763,     1019, 0x20409355, F=0x0
1,     189295,     189295,     1968,     1596, 0x408c726e, F=0x0
1,     191356,     191356,     1228,     1517, 0xae8c5c2b, F=0x0
1,     192640,     192640,     1763,     2506, 0xa458d6d4, F=0x0
1,     195193,     195193,     1092,     1074, 0x397ba9a8, F=0x0
1,     196369,     196369,     1524,     1715, 0x695ca41e, F=0x0
1,     197946,     197946,     1160,      789, 0xc63a189e, F=0x0
1,     199230,     199230,     1627,     1846, 0xeea8c599, F=0x0
1,     200924,     200924,     1763,      922, 0xd4a87222, F=0x0
1,     210600,     210600,     1831,      665, 0x55580135, F=0x0
1,     214771,     214771,     1558,     1216, 0x50d1f6c5, F=0x0
1,     225640,     225640,     2127,     2133, 0x670c11a5, F=0x0
1,     227834,     227834,     1262,     1264, 0xc1d9fc57, F=0x0
